<svg width="21" height="20" viewBox="0 0 21 20" fill="none" xmlns="http://www.w3.org/2000/svg">
<g id="SVG">
<path id="Vector" fill-rule="evenodd" clip-rule="evenodd" d="M17.25 10C17.25 10.1989 17.171 10.3897 17.0303 10.5303C16.8897 10.671 16.6989 10.75 16.5 10.75H6.81001L9.53001 13.47C9.66249 13.6122 9.73461 13.8002 9.73119 13.9945C9.72776 14.1888 9.64905 14.3742 9.51163 14.5116C9.37422 14.649 9.18883 14.7277 8.99453 14.7312C8.80023 14.7346 8.61219 14.6625 8.47001 14.53L4.47001 10.53C4.32956 10.3894 4.25067 10.1987 4.25067 10C4.25067 9.80125 4.32956 9.61062 4.47001 9.47L8.47001 5.47C8.61219 5.33752 8.80023 5.2654 8.99453 5.26882C9.18883 5.27225 9.37422 5.35096 9.51163 5.48838C9.64905 5.62579 9.72776 5.81118 9.73119 6.00548C9.73461 6.19978 9.66249 6.38782 9.53001 6.53L6.81001 9.25H16.5C16.6989 9.25 16.8897 9.32902 17.0303 9.46967C17.171 9.61032 17.25 9.80109 17.25 10Z" fill="#4A4A4A"/>
</g>
</svg>
