<svg width="16" height="16" viewBox="0 0 16 16" fill="none" xmlns="http://www.w3.org/2000/svg">
<g id="icon/UI/Maps">
<path id="Vector" d="M7.15289 14.3973C3.36909 8.91194 2.66675 8.34897 2.66675 6.33301C2.66675 3.57158 4.90532 1.33301 7.66675 1.33301C10.4282 1.33301 12.6667 3.57158 12.6667 6.33301C12.6667 8.34897 11.9644 8.91194 8.1806 14.3973C7.93229 14.756 7.40118 14.756 7.15289 14.3973ZM7.66675 8.41634C8.81735 8.41634 9.75008 7.48361 9.75008 6.33301C9.75008 5.18241 8.81735 4.24967 7.66675 4.24967C6.51615 4.24967 5.58341 5.18241 5.58341 6.33301C5.58341 7.48361 6.51615 8.41634 7.66675 8.41634Z" fill="white"/>
</g>
</svg>
