<svg width="18" height="12" viewBox="0 0 18 12" fill="none" xmlns="http://www.w3.org/2000/svg">
<path id="Cellular Connection" fill-rule="evenodd" clip-rule="evenodd" d="M16.6667 0.666992H15.6667C15.1145 0.666992 14.6667 1.11471 14.6667 1.66699V10.3337C14.6667 10.8859 15.1145 11.3337 15.6667 11.3337H16.6667C17.219 11.3337 17.6667 10.8859 17.6667 10.3337V1.66699C17.6667 1.11471 17.219 0.666992 16.6667 0.666992ZM11.0001 3.00033H12.0001C12.5524 3.00033 13.0001 3.44804 13.0001 4.00033V10.3337C13.0001 10.8859 12.5524 11.3337 12.0001 11.3337H11.0001C10.4478 11.3337 10.0001 10.8859 10.0001 10.3337V4.00033C10.0001 3.44804 10.4478 3.00033 11.0001 3.00033ZM7.33341 5.33366H6.33341C5.78113 5.33366 5.33341 5.78137 5.33341 6.33366V10.3337C5.33341 10.8859 5.78113 11.3337 6.33341 11.3337H7.33341C7.8857 11.3337 8.33341 10.8859 8.33341 10.3337V6.33366C8.33341 5.78137 7.8857 5.33366 7.33341 5.33366ZM2.66675 7.33366H1.66675C1.11446 7.33366 0.666748 7.78137 0.666748 8.33366V10.3337C0.666748 10.8859 1.11446 11.3337 1.66675 11.3337H2.66675C3.21903 11.3337 3.66675 10.8859 3.66675 10.3337V8.33366C3.66675 7.78137 3.21903 7.33366 2.66675 7.33366Z" fill="white"/>
</svg>
